<?xml version="1.0" encoding="UTF-8" standalone="no"?>
<!-- Generator: Adobe Illustrator 12.0.0, SVG Export Plug-In . SVG Version: 6.00 Build 51448)  -->

<svg
   xmlns:dc="http://purl.org/dc/elements/1.1/"
   xmlns:cc="http://creativecommons.org/ns#"
   xmlns:rdf="http://www.w3.org/1999/02/22-rdf-syntax-ns#"
   xmlns:svg="http://www.w3.org/2000/svg"
   xmlns="http://www.w3.org/2000/svg"
   xmlns:xlink="http://www.w3.org/1999/xlink"
   xmlns:sodipodi="http://sodipodi.sourceforge.net/DTD/sodipodi-0.dtd"
   xmlns:inkscape="http://www.inkscape.org/namespaces/inkscape"
   version="1.0"
   width="769"
   height="1000"
   viewBox="0 0 769 1000"
   overflow="visible"
   enable-background="new 0 0 769 1000"
   xml:space="preserve"
   id="svg3641"
   inkscape:version="0.47 r22583"
   sodipodi:docname="dsn-comic02.svg"><sodipodi:namedview
   pagecolor="#ffffff"
   bordercolor="#666666"
   borderopacity="1"
   objecttolerance="10"
   gridtolerance="10"
   guidetolerance="10"
   inkscape:pageopacity="0"
   inkscape:pageshadow="2"
   inkscape:window-width="1280"
   inkscape:window-height="976"
   id="namedview3780"
   showgrid="false"
   inkscape:zoom="1"
   inkscape:cx="315.61804"
   inkscape:cy="187.90323"
   inkscape:window-x="-3"
   inkscape:window-y="-3"
   inkscape:window-maximized="1"
   inkscape:current-layer="svg3641" /><metadata
   id="metadata3784"><rdf:RDF><cc:Work
       rdf:about=""><dc:format>image/svg+xml</dc:format><dc:type
         rdf:resource="http://purl.org/dc/dcmitype/StillImage" /></cc:Work></rdf:RDF></metadata><defs
   id="defs3782"><inkscape:perspective
   sodipodi:type="inkscape:persp3d"
   inkscape:vp_x="0 : 500 : 1"
   inkscape:vp_y="0 : 1000 : 0"
   inkscape:vp_z="769 : 500 : 1"
   inkscape:persp3d-origin="384.5 : 333.33333 : 1"
   id="perspective3786" /><inkscape:perspective
   id="perspective3856"
   inkscape:persp3d-origin="0.5 : 0.33333333 : 1"
   inkscape:vp_z="1 : 0.5 : 1"
   inkscape:vp_y="0 : 1000 : 0"
   inkscape:vp_x="0 : 0.5 : 1"
   sodipodi:type="inkscape:persp3d" /><inkscape:perspective
   sodipodi:type="inkscape:persp3d"
   inkscape:vp_x="0 : 0.5 : 1"
   inkscape:vp_y="0 : 1000 : 0"
   inkscape:vp_z="1 : 0.5 : 1"
   inkscape:persp3d-origin="0.5 : 0.33333333 : 1"
   id="perspective3916" />
	
	
	
	
	
	
	

	
	
	
	
	
	
	
<inkscape:perspective
   id="perspective3171"
   inkscape:persp3d-origin="0.5 : 0.33333333 : 1"
   inkscape:vp_z="1 : 0.5 : 1"
   inkscape:vp_y="0 : 1000 : 0"
   inkscape:vp_x="0 : 0.5 : 1"
   sodipodi:type="inkscape:persp3d" /><inkscape:perspective
   id="perspective3193"
   inkscape:persp3d-origin="0.5 : 0.33333333 : 1"
   inkscape:vp_z="1 : 0.5 : 1"
   inkscape:vp_y="0 : 1000 : 0"
   inkscape:vp_x="0 : 0.5 : 1"
   sodipodi:type="inkscape:persp3d" /></defs>

<image
   y="0"
   x="0"
   id="image3173"
   height="1000"
   width="769"
   xlink:href="file:///home/david/dsn-comic/base-jpg/p2.jpg"
   sodipodi:insensitive="true" /><g
   id="g3647">
		<g
   id="g3649">
			<path
   style="fill:#ffffff"
   id="path3651"
   d="m 639,727.333 c -42.526,0 -77.001,14.769 -77.001,58.333 0,10.744 1.858,19.616 5.211,26.939 l -24.88,22.725 31.319,-12.486 c 13.601,16.175 37.776,21.157 65.351,21.157 42.525,0 76.999,-10.338 76.999,-58.335 0,-43.564 -34.474,-58.333 -76.999,-58.333 z" />
		</g>
		<g
   id="g3653">
			<path
   style="fill:none;stroke:#000000;stroke-width:2.5"
   id="path3655"
   d="m 639,727.333 c -42.526,0 -77.001,14.769 -77.001,58.333 0,10.744 1.858,19.616 5.211,26.939 l -24.88,22.725 31.319,-12.486 c 13.601,16.175 37.776,21.157 65.351,21.157 42.525,0 76.999,-10.338 76.999,-58.335 0,-43.564 -34.474,-58.333 -76.999,-58.333 z" />
		</g>
	</g><rect
   style="fill:#ffffff;stroke:#000000;stroke-width:2.78616858"
   id="rect3657"
   height="54.713829"
   width="243.71384"
   y="728.47815"
   x="75.807083" /><rect
   style="fill:#ffffff;stroke:#000000;stroke-width:2.96166515"
   id="rect3659"
   height="59.871334"
   width="282.53833"
   y="400.56583"
   x="321.22784" /><g
   id="g3661">
		<g
   id="g3663">
			<path
   style="fill:#ffffff"
   id="path3665"
   d="M 226.03,385.668 H 41.306 c -10.127,4.359 -15.971,10.149 -15.971,17.664 0,10.658 10.308,17.649 27.273,22.093 3.133,10.755 11.659,33.913 32.39,60.913 0,0 -10.986,-25.65 -16.022,-57.66 18.053,2.688 40.442,3.653 64.693,3.653 59.831,0 108.333,-5.139 108.333,-28.999 -0.001,-7.515 -5.845,-13.305 -15.972,-17.664 z" />
		</g>
		<g
   id="g3667">
			<path
   style="fill:none;stroke:#000000;stroke-width:2.5"
   id="path3669"
   d="M 226.03,385.668 H 41.306 c -10.127,4.359 -15.971,10.149 -15.971,17.664 0,10.658 10.308,17.649 27.273,22.093 3.133,10.755 11.659,33.913 32.39,60.913 0,0 -10.986,-25.65 -16.022,-57.66 18.053,2.688 40.442,3.653 64.693,3.653 59.831,0 108.333,-5.139 108.333,-28.999 -0.001,-7.515 -5.845,-13.305 -15.972,-17.664 z" />
		</g>
	</g><g
   id="g3671">
		<g
   id="g3673">
			<path
   style="fill:#ffffff"
   id="path3675"
   d="m 746.334,44.999 c 0,-15.435 -36.638,-20.667 -81.833,-20.667 -45.195,0 -81.835,5.232 -81.835,20.667 0,16.481 36.64,20.667 81.835,20.667 10.703,0 20.916,-0.209 30.286,-0.749 0.739,12.653 0.521,46.034 -18.458,76.085 0,0 34.755,-40.248 35.452,-77.585 20.9,-2.641 34.553,-8.043 34.553,-18.418 z" />
		</g>
		<g
   id="g3677">
			<path
   style="fill:none;stroke:#000000;stroke-width:2.5"
   id="path3679"
   d="m 746.334,44.999 c 0,-15.435 -36.638,-20.667 -81.833,-20.667 -45.195,0 -81.835,5.232 -81.835,20.667 0,16.481 36.64,20.667 81.835,20.667 10.703,0 20.916,-0.209 30.286,-0.749 0.739,12.653 0.521,46.034 -18.458,76.085 0,0 34.755,-40.248 35.452,-77.585 20.9,-2.641 34.553,-8.043 34.553,-18.418 z" />
		</g>
	</g><g
   id="g3681"
   transform="matrix(1,0,0,1.2186977,0,-2.4238266)">
		<g
   id="g3683">
			<path
   style="fill:#ffffff"
   id="path3685"
   d="m 333.663,115.001 c 0,0 -10.841,-51.777 -46.25,-72.941 0.606,-1.817 0.92,-3.724 0.92,-5.727 0,-16 -8.667,-24 -8.667,-24 H 8.334 v 46 c 0,0 57.333,14.667 141.333,14.667 54.176,0 96.144,-4.162 119.12,-14.27 11.779,4.242 53.464,21.465 64.876,56.271 z" />
		</g>
		<g
   id="g3687">
			<path
   style="fill:none;stroke:#000000;stroke-width:2.5"
   id="path3689"
   d="m 333.663,115.001 c 0,0 -10.841,-51.777 -46.25,-72.941 0.606,-1.817 0.92,-3.724 0.92,-5.727 0,-16 -8.667,-24 -8.667,-24 H 8.334 v 46 c 0,0 57.333,14.667 141.333,14.667 54.176,0 96.144,-4.162 119.12,-14.27 11.779,4.242 53.464,21.465 64.876,56.271 z" />
		</g>
	</g><g
   id="g3691">
		<g
   id="g3693">
			<path
   style="fill:#ffffff"
   id="path3695"
   d="m 295.669,110.669 c 0,-19.667 -23.878,-26.333 -53.333,-26.333 -29.456,0 -53.333,6.667 -53.333,26.333 0,20.877 23.602,26.268 52.819,26.331 -0.032,7.597 -1.66,24.842 -14.156,41.338 0,0 28.247,-12.952 33.318,-42.168 20.256,-2.092 34.685,-8.66 34.685,-25.501 z" />
		</g>
		<g
   id="g3697">
			<path
   style="fill:none;stroke:#000000;stroke-width:2.5"
   id="path3699"
   d="m 295.669,110.669 c 0,-19.667 -23.878,-26.333 -53.333,-26.333 -29.456,0 -53.333,6.667 -53.333,26.333 0,20.877 23.602,26.268 52.819,26.331 -0.032,7.597 -1.66,24.842 -14.156,41.338 0,0 28.247,-12.952 33.318,-42.168 20.256,-2.092 34.685,-8.66 34.685,-25.501 z" />
		</g>
	</g>
<g
   id="g3714">
		<rect
   style="fill:none"
   id="rect3716"
   height="34.745998"
   width="92.655998"
   y="99.750999"
   x="198.245" />
		<text
   id="text3718"
   x="202.32761"
   y="106.082"><tspan
     style="font-size:11.58209991px;font-family:Driftjunky13"
     id="tspan3720"
     font-size="11.5821"
     y="106.082"
     x="202.32761">Hmm, was</tspan></text>






	</g><g
   id="g3724">
		<rect
   style="fill:none"
   id="rect3726"
   height="19.292999"
   width="163.423"
   y="39.993"
   x="583.92499" />
		<text
   style="font-size:11.58209991px;font-family:Driftjunky13"
   id="text3728"
   font-size="11.5821"
   transform="translate(597.957,50.3247)">FriendCenter!</text>






	</g><g
   id="g3730">
		<rect
   style="fill:none"
   id="rect3732"
   height="29.589001"
   width="184.013"
   y="394.94601"
   x="38.922001" />
		<text
   id="text3734"
   transform="translate(39.7612,405.2769)" />






	<text
   xml:space="preserve"
   style="font-size:11px;font-style:normal;font-variant:normal;font-weight:bold;font-stretch:normal;fill:#000000;fill-opacity:1;stroke:none;font-family:Driftjunky13;-inkscape-font-specification:Driftjunky13 Medium"
   x="48"
   y="401"
   id="text3030"><tspan
     sodipodi:role="line"
     id="tspan3032"
     x="48"
     y="401">Nicht sehr Kreativ,</tspan></text>
<text
   xml:space="preserve"
   style="font-size:11px;font-style:normal;font-variant:normal;font-weight:bold;font-stretch:normal;fill:#000000;fill-opacity:1;stroke:none;font-family:Driftjunky13;-inkscape-font-specification:Driftjunky13 Medium"
   x="92"
   y="417"
   id="text3034"><tspan
     sodipodi:role="line"
     id="tspan3036"
     x="92"
     y="417">Aber OK.</tspan></text>
</g>
<text
   xml:space="preserve"
   style="font-size:11px;font-style:normal;font-variant:normal;font-weight:bold;font-stretch:normal;fill:#000000;fill-opacity:1;stroke:none;font-family:Driftjunky13;-inkscape-font-specification:Driftjunky13 Medium"
   x="20"
   y="25"
   id="text3006"><tspan
     sodipodi:role="line"
     id="tspan3008"
     x="20"
     y="25">Ich beschreibe dir mal,wie</tspan></text>
<text
   xml:space="preserve"
   style="font-size:11px;font-style:normal;font-variant:normal;font-weight:bold;font-stretch:normal;fill:#000000;fill-opacity:1;stroke:none;font-family:Driftjunky13;-inkscape-font-specification:Driftjunky13 Medium"
   x="22"
   y="42"
   id="text3010"><tspan
     sodipodi:role="line"
     id="tspan3012"
     x="22"
     y="42">ein typisches soziale</tspan></text>
<text
   xml:space="preserve"
   style="font-size:11px;font-style:normal;font-variant:normal;font-weight:bold;font-stretch:normal;fill:#000000;fill-opacity:1;stroke:none;font-family:Driftjunky13;-inkscape-font-specification:Driftjunky13 Medium"
   x="27"
   y="58"
   id="text3014"><tspan
     sodipodi:role="line"
     id="tspan3016"
     x="27"
     y="58">Netzwerk funktioniert.</tspan></text>
<text
   xml:space="preserve"
   style="font-size:11px;font-style:normal;font-variant:normal;font-weight:bold;font-stretch:normal;fill:#000000;fill-opacity:1;stroke:none;font-family:Driftjunky13;-inkscape-font-specification:Driftjunky13 Medium"
   x="94"
   y="70"
   id="text3018"><tspan
     sodipodi:role="line"
     id="tspan3020"></tspan></text>
<text
   xml:space="preserve"
   style="font-size:11px;font-style:normal;font-variant:normal;font-weight:bold;font-stretch:normal;fill:#000000;fill-opacity:1;stroke:none;font-family:Driftjunky13;-inkscape-font-specification:Driftjunky13 Medium"
   x="92"
   y="73"
   id="text3022"><tspan
     sodipodi:role="line"
     id="tspan3024"
     x="92"
     y="73">Wir nennen es...</tspan></text>
<text
   xml:space="preserve"
   style="font-size:11px;font-style:normal;font-variant:normal;font-weight:bold;font-stretch:normal;fill:#000000;fill-opacity:1;stroke:none;font-family:Driftjunky13;-inkscape-font-specification:Driftjunky13 Medium"
   x="202"
   y="122"
   id="text3026"><tspan
     sodipodi:role="line"
     id="tspan3028"
     x="202"
     y="122">ist mit...</tspan></text>
<text
   xml:space="preserve"
   style="font-size:11px;font-style:normal;font-variant:normal;font-weight:bold;font-stretch:normal;fill:#000000;fill-opacity:1;stroke:none;font-family:Driftjunky13;-inkscape-font-specification:Driftjunky13 Medium"
   x="331"
   y="420"
   id="text3038"><tspan
     sodipodi:role="line"
     id="tspan3040"
     x="331"
     y="420">Sagen wir dein Freund</tspan></text>
<text
   xml:space="preserve"
   style="font-size:11px;font-style:normal;font-variant:normal;font-weight:bold;font-stretch:normal;fill:#000000;fill-opacity:1;stroke:none;font-family:Driftjunky13;-inkscape-font-specification:Driftjunky13 Medium"
   x="332"
   y="436"
   id="text3042"><tspan
     sodipodi:role="line"
     id="tspan3044"
     x="332"
     y="436">Tuan erstellet eine</tspan></text>
<text
   xml:space="preserve"
   style="font-size:11px;font-style:normal;font-variant:normal;font-weight:bold;font-stretch:normal;fill:#000000;fill-opacity:1;stroke:none;font-family:Driftjunky13;-inkscape-font-specification:Driftjunky13 Medium"
   x="334"
   y="452"
   id="text3046"><tspan
     sodipodi:role="line"
     id="tspan3048"
     x="334"
     y="452">Nachricht auf Friendcenter.</tspan></text>
<text
   xml:space="preserve"
   style="font-size:11px;font-style:normal;font-variant:normal;font-weight:bold;font-stretch:normal;fill:#000000;fill-opacity:1;stroke:none;font-family:Driftjunky13;-inkscape-font-specification:Driftjunky13 Medium"
   x="84"
   y="743"
   id="text3090"><tspan
     sodipodi:role="line"
     id="tspan3092"
     x="84"
     y="743">Seine Nachricht geht</tspan></text>
<text
   xml:space="preserve"
   style="font-size:11px;font-style:normal;font-variant:normal;font-weight:bold;font-stretch:normal;fill:#000000;fill-opacity:1;stroke:none;font-family:Driftjunky13;-inkscape-font-specification:Driftjunky13 Medium"
   x="84"
   y="759.5"
   id="text3094"><tspan
     sodipodi:role="line"
     x="84"
     y="759.5"
     id="tspan3098">zu dem Server von</tspan></text>
<text
   xml:space="preserve"
   style="font-size:11px;font-style:normal;font-variant:normal;font-weight:bold;font-stretch:normal;fill:#000000;fill-opacity:1;stroke:none;font-family:Driftjunky13;-inkscape-font-specification:Driftjunky13 Medium"
   x="84"
   y="776"
   id="text3102"><tspan
     sodipodi:role="line"
     id="tspan3104"
     x="84"
     y="776">Friendcenter.</tspan></text>
<text
   xml:space="preserve"
   style="font-size:11px;font-style:normal;font-variant:normal;font-weight:normal;font-stretch:normal;fill:#000000;fill-opacity:1;stroke:none;font-family:Liberation Sans;-inkscape-font-specification:Liberation Sans"
   x="454"
   y="663.71124"
   id="text3177"
   transform="matrix(1,-0.26794811,0,1,0,0)"><tspan
     sodipodi:role="line"
     id="tspan3179"
     x="454"
     y="663.71124"
     style="font-weight:bold">Zeit</tspan><tspan
     sodipodi:role="line"
     x="454"
     y="677.46124"
     id="tspan3181"
     style="font-weight:bold">für</tspan><tspan
     sodipodi:role="line"
     x="454"
     y="691.21124"
     id="tspan3183"
     style="font-weight:bold">Pizza!</tspan></text>
<text
   xml:space="preserve"
   style="font-size:11px;font-style:normal;font-variant:normal;font-weight:normal;font-stretch:normal;fill:#000000;fill-opacity:1;stroke:none;font-family:Liberation Sans;-inkscape-font-specification:Liberation Sans"
   x="140.8374"
   y="892.68164"
   id="text3177-4"><tspan
     sodipodi:role="line"
     id="tspan3179-6"
     x="140.8374"
     y="892.68164"
     style="font-weight:bold">Zeit</tspan><tspan
     sodipodi:role="line"
     x="140.8374"
     y="906.43164"
     id="tspan3181-6"
     style="font-weight:bold">für</tspan><tspan
     sodipodi:role="line"
     x="140.8374"
     y="920.18164"
     id="tspan3183-3"
     style="font-weight:bold">Pizza!</tspan></text>
<text
   xml:space="preserve"
   style="font-size:18px;font-style:normal;font-variant:normal;font-weight:normal;font-stretch:normal;fill:#000000;fill-opacity:1;stroke:none;font-family:Liberation Sans;-inkscape-font-specification:Liberation Sans"
   x="40.5"
   y="825.5"
   id="text3216"><tspan
     sodipodi:role="line"
     id="tspan3218"
     x="40.5"
     y="825.5"
     style="font-weight:bold">Tuan</tspan></text>
<text
   xml:space="preserve"
   style="font-size:18px;font-style:normal;font-variant:normal;font-weight:normal;font-stretch:normal;fill:#000000;fill-opacity:1;stroke:none;font-family:Liberation Sans;-inkscape-font-specification:Liberation Sans"
   x="132.5"
   y="869.5"
   id="text3220"><tspan
     sodipodi:role="line"
     id="tspan3222"
     x="132.5"
     y="869.5"
     style="font-size:14px;font-weight:bold">Tuans Nachrichten</tspan></text>
<text
   xml:space="preserve"
   style="font-size:11px;font-style:normal;font-variant:normal;font-weight:bold;font-stretch:normal;fill:#000000;fill-opacity:1;stroke:none;font-family:Driftjunky13;-inkscape-font-specification:Driftjunky13 Medium"
   x="586.56598"
   y="756.5"
   id="text3224"><tspan
     sodipodi:role="line"
     id="tspan3226"
     x="586.56598"
     y="756.5">Oh, das ist</tspan></text>
<text
   xml:space="preserve"
   style="font-size:11px;font-style:normal;font-variant:normal;font-weight:bold;font-stretch:normal;fill:#000000;fill-opacity:1;stroke:none;font-family:Driftjunky13;-inkscape-font-specification:Driftjunky13 Medium"
   x="605.80859"
   y="770.20001"
   id="text3228"><tspan
     sodipodi:role="line"
     id="tspan3230"
     x="605.80859"
     y="770.20001">mir zu</tspan></text>
<text
   xml:space="preserve"
   style="font-size:11px;font-style:normal;font-variant:normal;font-weight:bold;font-stretch:normal;fill:#000000;fill-opacity:1;stroke:none;font-family:Driftjunky13;-inkscape-font-specification:Driftjunky13 Medium"
   x="588.88879"
   y="783.90002"
   id="text3232"><tspan
     sodipodi:role="line"
     id="tspan3234"
     x="588.88879"
     y="783.90002">technisch.</tspan></text>
<text
   xml:space="preserve"
   style="font-size:11px;font-style:normal;font-variant:normal;font-weight:bold;font-stretch:normal;fill:#000000;fill-opacity:1;stroke:none;font-family:Driftjunky13;-inkscape-font-specification:Driftjunky13 Medium"
   x="590.09149"
   y="797.59998"
   id="text3236"><tspan
     sodipodi:role="line"
     id="tspan3238"
     x="590.09149"
     y="797.59998">Was genau</tspan></text>
<text
   xml:space="preserve"
   style="font-size:11px;font-style:normal;font-variant:normal;font-weight:bold;font-stretch:normal;fill:#000000;fill-opacity:1;stroke:none;font-family:Driftjunky13;-inkscape-font-specification:Driftjunky13 Medium"
   x="601.10052"
   y="811.29999"
   id="text3240"><tspan
     sodipodi:role="line"
     x="601.10052"
     y="811.29999"
     id="tspan3244">ist ein</tspan></text>
<text
   xml:space="preserve"
   style="font-size:11px;font-style:normal;font-variant:normal;font-weight:bold;font-stretch:normal;fill:#000000;fill-opacity:1;stroke:none;font-family:Driftjunky13;-inkscape-font-specification:Driftjunky13 Medium"
   x="600.56177"
   y="825"
   id="text3248"><tspan
     sodipodi:role="line"
     id="tspan3250"
     x="600.56177"
     y="825">Server?</tspan></text>
</svg>